<?xml version="1.0" encoding="iso-8859-1"?>
<!-- Generator: Adobe Illustrator 19.0.0, SVG Export Plug-In . SVG Version: 6.00 Build 0)  -->
<svg version="1.1" id="Layer_1" xmlns="http://www.w3.org/2000/svg" xmlns:xlink="http://www.w3.org/1999/xlink" x="0px" y="0px"
	 viewBox="0 0 511.999 511.999" style="enable-background:new 0 0 511.999 511.999;" xml:space="preserve">
<g>
	<g>
		<path d="M163.131,233.85l34.865,11.328c2.094-3.495,4.5-6.779,7.17-9.828l-60.511-83.287
			c-49.027-9.878-100.913,3.425-139.682,38.272c-3.992,3.589-5.763,9.037-4.643,14.287c10.882,50.979,45.041,92.24,90.51,113.066
			l97.874-31.801c-0.374-4.167-0.392-7.819,0-12.181l-34.854-11.325c-7.878-2.56-12.19-11.022-9.63-18.901
			C146.79,235.602,155.246,231.288,163.131,233.85z"/>
	</g>
</g>
<g>
	<g>
		<path d="M263.51,13.41c-4.646-2.688-10.375-2.688-15.021,0c-45.121,26.102-73.807,71.339-79.563,121.018l60.487,83.254
			c3.702-1.591,7.579-2.847,11.586-3.759v-36.648c0-8.284,6.716-15,15-15c8.284,0,15,6.716,15,15v36.648
			c4.007,0.912,7.884,2.169,11.587,3.76l60.487-83.253C337.317,84.75,308.632,39.513,263.51,13.41z"/>
	</g>
</g>
<g>
	<g>
		<path d="M255.999,242.223c-20.718,0-37.573,16.855-37.573,37.573c0,20.718,16.855,37.573,37.573,37.573
			s37.573-16.855,37.573-37.573S276.717,242.223,255.999,242.223z"/>
	</g>
</g>
<g>
	<g>
		<path d="M507.027,190.335c-38.769-34.847-90.655-48.151-139.683-38.272l-60.511,83.286c2.67,3.05,5.077,6.334,7.171,9.829
			l34.865-11.329c7.878-2.562,16.341,1.751,18.901,9.63c2.56,7.879-1.752,16.341-9.63,18.901l-34.855,11.325
			c0.374,4.169,0.392,7.82,0,12.181l97.873,31.801c45.471-20.826,79.629-62.087,90.511-113.066
			C512.789,199.372,511.019,193.923,507.027,190.335z"/>
	</g>
</g>
<g>
	<g>
		<path d="M229.412,341.911l-21.538,29.645c-4.871,6.704-14.253,8.186-20.952,3.318c-6.702-4.87-8.188-14.25-3.319-20.952
			l21.563-29.679c-2.67-3.05-5.076-6.334-7.17-9.828l-97.884,31.804c-24.545,43.576-27.928,97.034-6.767,144.674
			c2.179,4.906,6.813,8.273,12.152,8.83c51.847,5.406,101.644-14.331,135.502-51.14V345.671
			C236.992,344.759,233.115,343.502,229.412,341.911z"/>
	</g>
</g>
<g>
	<g>
		<path d="M411.887,346.219l-97.885-31.804c-2.094,3.495-4.5,6.779-7.17,9.828l21.563,29.679c4.869,6.702,3.383,16.083-3.319,20.952
			c-6.702,4.869-16.083,3.383-20.952-3.318l-21.538-29.645c-3.703,1.591-7.58,2.848-11.587,3.76v102.933
			c34.388,37.382,84.42,56.443,135.502,51.118c5.339-0.556,9.974-3.924,12.152-8.83
			C439.815,443.252,436.433,389.794,411.887,346.219z"/>
	</g>
</g>
<g>
</g>
<g>
</g>
<g>
</g>
<g>
</g>
<g>
</g>
<g>
</g>
<g>
</g>
<g>
</g>
<g>
</g>
<g>
</g>
<g>
</g>
<g>
</g>
<g>
</g>
<g>
</g>
<g>
</g>
</svg>
