<svg id="Capa_1" enable-background="new 0 0 512 512" height="512" viewBox="0 0 512 512" width="512" xmlns="http://www.w3.org/2000/svg"><path d="m368.659 85.791c-26.705-38.436-63.77-67.744-107.186-84.756-3.519-1.379-7.427-1.379-10.945 0-43.417 17.012-80.481 46.321-107.187 84.756-27.341 39.351-41.793 85.566-41.793 133.651s14.452 94.3 41.793 133.651c24.622 35.438 58.055 63.107 97.149 80.543v-107.423l-58.606-58.606c-5.858-5.858-5.858-15.355 0-21.213 5.857-5.858 15.355-5.858 21.213 0l37.394 37.394v-119.788c0-8.284 6.716-15 15-15s15 6.716 15 15v42.404l41.894-41.894c5.857-5.858 15.355-5.858 21.213 0s5.858 15.355 0 21.213l-60.32 60.32c-.856.856-1.797 1.572-2.786 2.178v185.868c39.533-17.408 73.333-45.252 98.17-80.998 27.341-39.351 41.793-85.566 41.793-133.651s-14.454-94.298-41.796-133.649z"/><path d="m255.998 438.793c-5.34 0-10.757-3.038-15.509-5.158v63.365c0 8.284 6.716 15 15 15s15-6.716 15-15c0 0 0-62.902 0-62.909.001.216-9.085 4.702-14.491 4.702z"/></svg>