<?xml version="1.0" encoding="iso-8859-1"?>
<!-- Generator: Adobe Illustrator 19.0.0, SVG Export Plug-In . SVG Version: 6.00 Build 0)  -->
<svg version="1.1" id="Layer_1" xmlns="http://www.w3.org/2000/svg" xmlns:xlink="http://www.w3.org/1999/xlink" x="0px" y="0px"
	 viewBox="0 0 512 512" style="enable-background:new 0 0 512 512;" xml:space="preserve">
<g>
	<g>
		<ellipse cx="251.059" cy="81.607" rx="61.742" ry="20.122"/>
	</g>
</g>
<g>
	<g>
		<path d="M480.787,175.086c-27.514-24.796-62.747-29.768-81.053-10.224V81.607c0-24.053-17.049-45.679-48.007-60.897
			C324.555,7.355,288.802,0,251.053,0c-79.75,0-148.681,32.875-148.681,81.607v118.858l-14.971-13.892
			c-1.415-13.562-5.661-29.776-16.902-41.224c-15.34-15.622-39.806-18.395-54.319-18.519c-6.918-0.059-12.595,5.516-12.661,12.433
			c-0.14,14.513,2.187,39.025,17.528,54.646c12.22,12.445,30.228,16.734,44.385,18.026l36.941,34.278v184.179
			c0,24.053,17.05,45.679,48.008,60.897c27.17,13.356,62.923,20.71,100.672,20.71c37.748,0,73.502-7.355,100.674-20.71
			c30.958-15.217,48.007-36.844,48.007-60.897v-65.176l99.185-110.059C517.329,234.73,508.032,199.64,480.787,175.086z
			 M251.053,129.677c-68.109,0-115.144-26.537-115.144-48.07c0-21.367,46.641-48.07,115.144-48.07
			c68.601,0,115.144,26.747,115.144,48.07C366.197,102.931,319.655,129.677,251.053,129.677z M474.007,232.706
			c-1.489,1.653-6.456,1.404-5.337,1.404c-6.637,0-17.692-3.573-28.818-13.6c-15.672-14.121-18.501-29.566-15.671-32.708
			c2.657-2.951,18.06-2.307,34.154,12.196C473.951,214.073,476.857,229.545,474.007,232.706z"/>
	</g>
</g>
<g>
</g>
<g>
</g>
<g>
</g>
<g>
</g>
<g>
</g>
<g>
</g>
<g>
</g>
<g>
</g>
<g>
</g>
<g>
</g>
<g>
</g>
<g>
</g>
<g>
</g>
<g>
</g>
<g>
</g>
</svg>
