<svg height="682pt" viewBox="-184 -21 682 682.66669" width="682pt" xmlns="http://www.w3.org/2000/svg"><path d="m127.597656 384.574219v47.019531c-10.796875-3.503906-22.648437-5.386719-34.949218-5.386719-44.082032 0-85.488282 39.460938-85.488282 63.253907 0 23.796874 41.40625 63.257812 85.488282 63.257812 12.300781 0 24.152343-1.882812 34.949218-5.382812v73.601562c0 10.527344 8.535156 19.0625 19.0625 19.0625s19.0625-8.535156 19.0625-19.0625v-44.261719c10.792969 3.5 22.644532 5.378907 34.945313 5.378907 44.078125 0 85.484375-39.457032 85.484375-63.25 0-23.796876-41.40625-63.257813-85.484375-63.257813-12.300781 0-24.152344 1.882813-34.945313 5.386719v-76.359375c-6.277344.546875-12.632812.835937-19.0625.835937-6.433594 0-12.789062-.292968-19.0625-.835937zm0 0"/><path d="m210.535156 110.6875c-13.90625 11.367188-24.988281 23.359375-31.902344 31.636719 27.332032 45.023437 34.425782 96.957031 35.5 132.949219.449219 14.878906-1.90625 40.25-4.167968 60.421874 55.21875-21.210937 93.851562-69.269531 93.851562-125.03125v-129.058593l-18.902344-1.289063c-27.914062-1.464844-56.433593 15.707032-74.378906 30.371094zm0 0"/><path d="m176.027344 276.410156c-1.214844-40.585937-9.460938-85.347656-33.753906-121.023437-1.882813-1.757813-3.347657-3.828125-4.371094-6.085938-25.238282-33.359375-65.886719-57.550781-130.058594-60.660156l-18.34375-.492187v122.515624c0 75.332032 70.503906 136.621094 157.160156 136.621094 8.066406 0 15.996094-.53125 23.742188-1.5625 2.644531-21.566406 6.085937-53.972656 5.625-69.3125zm0 0"/><path d="m114.054688 78.753906c15.320312 8.824219 29.035156 19.714844 41.042968 32.5 8.054688-9.023437 18.703125-19.777344 31.3125-30.082031 11.421875-9.335937 22.808594-17 34.128906-23.003906-.023437.011719-.042968.019531-.066406.035156-.109375-.140625-.199218-.28125-.3125-.421875-7.53125-9.300781-18.808594-22.707031-29.796875-33.757812-16.960937-17.066407-28.449219-24.023438-39.652343-24.023438-12.046876 0-24.882813 8.351562-44.300782 28.824219-11.269531 11.875-22.355468 25.402343-28.921875 33.671875"/></svg>